<svg width="186" height="170" viewBox="0 0 186 170" fill="none" xmlns="http://www.w3.org/2000/svg">
<g clip-path="url(#clip0_51_4368)">
<path d="M169.455 136.197L154.356 114.016C154.356 114.016 177.222 121.911 174.627 136.197H169.455Z" fill="#E5E5E5"/>
<path d="M12.9433 136.344L12.3701 136.333C12.5918 130.03 13.2718 123.751 14.4048 117.544C16.8834 104.256 21.0049 95.5288 26.6548 91.6054L26.9839 92.0693C13.7857 101.234 12.95 135.994 12.9433 136.344Z" fill="#E5E5E5"/>
<path d="M20.1081 136.208L19.5349 136.197C19.5472 135.57 19.9055 120.774 25.7949 116.684L26.1241 117.148C20.4722 121.073 20.1109 136.058 20.1081 136.208Z" fill="#E5E5E5"/>
<path d="M30.2447 92.1208C31.8276 92.1208 33.1107 90.8517 33.1107 89.2863C33.1107 87.7209 31.8276 86.4518 30.2447 86.4518C28.6619 86.4518 27.3788 87.7209 27.3788 89.2863C27.3788 90.8517 28.6619 92.1208 30.2447 92.1208Z" fill="#CC2129"/>
<path d="M28.8255 116.497C30.4084 116.497 31.6915 115.228 31.6915 113.663C31.6915 112.097 30.4084 110.828 28.8255 110.828C27.2427 110.828 25.9596 112.097 25.9596 113.663C25.9596 115.228 27.2427 116.497 28.8255 116.497Z" fill="#CC2129"/>
<path d="M18.7722 93.8199C19.3108 97.2224 17.907 100.266 17.907 100.266C17.907 100.266 15.6299 97.7924 15.0913 94.3899C14.5527 90.9874 15.9565 87.9441 15.9565 87.9441C15.9565 87.9441 18.2336 90.4174 18.7722 93.8199Z" fill="#E5E5E5"/>
<path d="M28.1403 102.083C24.8465 103.201 21.5719 102.364 21.5719 102.364C21.5719 102.364 23.6377 99.7154 26.9315 98.598C30.2253 97.4806 33.4999 98.3175 33.4999 98.3175C33.4999 98.3175 31.4341 100.966 28.1403 102.083Z" fill="#E5E5E5"/>
<path d="M28.2461 123.671C26.7554 124.134 25.1678 124.202 23.6422 123.868C24.6109 122.648 25.9155 121.731 27.3988 121.228C28.8822 120.725 30.4811 120.657 32.0028 121.032C31.0058 122.222 29.7104 123.132 28.2461 123.671Z" fill="#E5E5E5"/>
<path d="M185.713 136.764H0.286595C0.210585 136.764 0.137693 136.734 0.0839458 136.681C0.0301989 136.628 0 136.556 0 136.48C0 136.405 0.0301989 136.333 0.0839458 136.28C0.137693 136.227 0.210585 136.197 0.286595 136.197H185.713C185.789 136.197 185.862 136.227 185.916 136.28C185.97 136.333 186 136.405 186 136.48C186 136.556 185.97 136.628 185.916 136.681C185.862 136.734 185.789 136.764 185.713 136.764Z" fill="#CBCBCB"/>
<path d="M117.444 149.831L115.1 155.866L90.4456 149.794L93.9059 140.886L117.444 149.831Z" fill="#FFB7B7"/>
<path d="M123.958 150.539L116.398 170L116.149 169.905C114.117 169.134 112.479 167.595 111.595 165.629C110.71 163.663 110.652 161.43 111.432 159.421L111.432 159.42L116.05 147.534L123.958 150.539Z" fill="#2F2E41"/>
<path d="M79.9814 74.2609L69.2375 75.2558L68.7045 106.872C68.8469 108.422 69.5972 109.854 70.7946 110.863C71.992 111.872 73.5414 112.378 75.1108 112.271L81.9226 111.807L79.9814 74.2609Z" fill="#E5E5E5"/>
<path d="M117.858 72.7047L110.507 72.6112L110.072 110.178C111.696 110.232 113.314 109.954 114.825 109.361C116.336 108.769 117.708 107.875 118.854 106.735C120 105.596 120.897 104.235 121.488 102.737C122.079 101.239 122.351 99.6375 122.288 98.0312L117.858 72.7047Z" fill="#E5E5E5"/>
<path d="M75.2026 123.524C75.0285 124.613 74.7758 125.689 74.4464 126.743C74.0754 127.775 73.5027 128.729 73.1635 129.771C72.0824 133.094 73.5812 136.798 75.975 139.363C78.0509 141.578 80.7305 143.151 83.6905 143.894C85.85 144.431 88.0955 144.508 90.321 144.583C96.4835 144.79 102.805 144.974 108.644 143.016C110.489 142.382 112.271 141.581 113.967 140.624C114.503 140.372 114.975 140.004 115.349 139.548C115.794 138.921 115.851 138.108 115.847 137.342C115.834 134.758 115.304 132.187 115.43 129.606C115.5 128.177 115.77 126.748 115.637 125.323C115.453 123.705 114.767 122.182 113.674 120.964C112.581 119.745 111.135 118.891 109.532 118.517C107.875 118.165 106.157 118.357 104.47 118.517C100.093 118.933 95.6965 119.128 91.2987 119.1C86.8053 119.072 82.3397 118.393 77.8687 118.322C76.5464 118.301 76.5732 118.705 76.1522 119.97C75.7645 121.135 75.4474 122.322 75.2026 123.524Z" fill="#2F2E41"/>
<path d="M57.6319 121.424C56.4236 121.124 55.1786 120.993 53.9335 121.035C52.6252 121.107 51.3474 121.453 50.1849 122.05C49.0224 122.648 48.0018 123.484 47.1912 124.502C46.3805 125.52 45.7983 126.697 45.4832 127.955C45.1681 129.213 45.1273 130.523 45.3637 131.797C45.6654 133.178 46.1586 134.511 46.8292 135.758C47.81 137.726 48.9864 139.691 50.8022 140.952C51.8643 141.69 53.0937 142.15 54.3084 142.603L63.8717 146.166C65.2786 146.69 66.6856 147.214 68.1065 147.7C75.2444 150.14 82.6862 151.604 90.225 152.049C92.5213 152.184 94.8524 152.222 97.0926 151.705C97.6242 151.582 98.1913 151.399 98.4991 150.954C98.6814 150.639 98.7889 150.288 98.8133 149.927L99.4018 145.853C99.4847 145.279 99.5644 144.675 99.3518 144.135C99.0822 143.45 98.4065 143.019 97.7622 142.653C91.475 139.082 84.134 137.112 78.8419 132.21C77.5961 131.056 76.5536 129.227 75.0399 128.443C73.3234 127.554 71.3019 127.047 69.5277 126.228C65.649 124.437 61.8356 122.38 57.6319 121.424Z" fill="#2F2E41"/>
<path opacity="0.1" d="M67.1794 126.917C70.5596 127.964 84.8309 135.222 87.2771 137.756C86.9492 137.873 75.8245 131.707 75.4906 131.608C72.4563 130.707 69.4051 129.8 66.5235 128.482C65.9439 128.217 62.7575 126.971 62.9018 126.247C63.0647 125.431 66.5793 126.731 67.1794 126.917Z" fill="black"/>
<path d="M87.5795 63.6343L78.4785 70.4687C78.4785 70.4687 68.8751 70.7659 69.1996 76.8374C69.5241 82.9088 73.3676 111.655 73.3676 111.655L74.2015 121.546L90.0195 126.004C98.5661 128.412 107.596 128.604 116.239 126.56L114.359 116.637C114.359 116.637 121.971 71.571 117.385 69.5868C112.8 67.6027 109.934 68.1696 109.934 68.1696L104.186 63.2092L87.5795 63.6343Z" fill="#E5E5E5"/>
<path d="M114.519 52.5951C114.519 61.4673 106.225 60.1254 95.9923 60.1254C85.7601 60.1254 77.4652 61.4673 77.4652 52.5951C77.4652 43.7229 81.517 27.9963 95.9923 27.9963C110.966 27.9963 114.519 43.7229 114.519 52.5951Z" fill="#2F2E41"/>
<path d="M105.623 55.6019C110.492 50.7867 110.492 42.9797 105.623 38.1645C100.754 33.3493 92.8608 33.3493 87.9921 38.1645C83.1235 42.9797 83.1235 50.7867 87.9921 55.6019C92.8608 60.4171 100.754 60.417 105.623 55.6019Z" fill="#FFB7B7"/>
<path d="M81.5259 46.5709H86.4568L88.6322 40.5467L89.0671 46.5709H91.4239L92.6929 43.0568L92.9467 46.5709H110.459C110.459 43.1092 109.068 39.7892 106.593 37.3414C104.118 34.8936 100.761 33.5185 97.2612 33.5185H94.7233C91.2231 33.5185 87.8663 34.8936 85.3913 37.3414C82.9163 39.7892 81.5259 43.1092 81.5259 46.5709Z" fill="#2F2E41"/>
<path d="M108.501 65.0516H83.5671V94.8135H108.501V65.0516Z" fill="#CC2129"/>
<path d="M84.9413 149.547L87.2862 155.583L111.94 149.51L108.48 140.603L84.9413 149.547Z" fill="#FFB7B7"/>
<path d="M86.3357 147.251L90.9533 159.137L90.9534 159.137C91.7337 161.146 91.6751 163.379 90.7906 165.346C89.9061 167.312 88.2681 168.85 86.2369 169.622L85.988 169.717L78.4279 150.256L86.3357 147.251Z" fill="#2F2E41"/>
<path d="M134.222 119.114C136.203 118.622 138.256 118.484 140.286 118.704C141.907 118.881 143.577 119.327 144.76 120.436C146.201 121.787 146.664 123.876 146.702 125.838C146.766 129.748 145.455 133.558 142.993 136.617C142.392 137.391 141.677 138.071 140.873 138.636C140.005 139.173 139.079 139.614 138.114 139.951L116.697 148.306C111.063 150.503 105.409 152.708 99.532 154.157C99.2125 154.309 98.8448 154.33 98.5098 154.214C98.1748 154.099 97.8999 153.856 97.7457 153.54C97.741 153.531 97.7363 153.521 97.7319 153.511C95.8554 150.86 94.2812 148.012 93.038 145.019C92.9791 144.948 92.9384 144.864 92.9194 144.774C92.9003 144.684 92.9035 144.591 92.9286 144.502C92.9537 144.414 92.9999 144.332 93.0635 144.265C93.127 144.198 93.206 144.147 93.2937 144.117L108.442 135.509C109.527 134.892 110.624 134.267 111.525 133.408C112.18 132.78 112.716 132.042 113.108 131.228C113.422 130.58 113.451 129.049 113.852 128.569C114.245 128.1 115.588 128.063 116.209 127.878C117.084 127.613 117.941 127.292 118.774 126.919C122.163 125.42 125.18 123.241 128.428 121.486C130.25 120.455 132.197 119.658 134.222 119.114Z" fill="#2F2E41"/>
<path opacity="0.1" d="M125.635 125.542C123.032 127.475 119.662 129.252 117.083 131.236C116.203 131.914 101.528 140.073 101.32 141.157C103.727 141.558 119.056 130.952 121.249 129.894C123.442 128.836 125.386 127.343 127.313 125.862C127.804 125.484 129.884 124.349 128.475 123.927C127.681 123.69 126.221 125.156 125.635 125.542Z" fill="black"/>
<path d="M172.412 50.9398C177.358 50.9398 181.367 46.9743 181.367 42.0827C181.367 37.191 177.358 33.2255 172.412 33.2255C167.466 33.2255 163.456 37.191 163.456 42.0827C163.456 46.9743 167.466 50.9398 172.412 50.9398Z" fill="#F1F1F1"/>
<path d="M155.837 52.5261C159.307 52.5261 162.119 49.7444 162.119 46.3129C162.119 42.8815 159.307 40.0997 155.837 40.0997C152.368 40.0997 149.555 42.8815 149.555 46.3129C149.555 49.7444 152.368 52.5261 155.837 52.5261Z" fill="#F1F1F1"/>
<path d="M40.7577 48.4731C43.5396 48.4731 45.7948 46.2426 45.7948 43.4912C45.7948 40.7398 43.5396 38.5093 40.7577 38.5093C37.9757 38.5093 35.7205 40.7398 35.7205 43.4912C35.7205 46.2426 37.9757 48.4731 40.7577 48.4731Z" fill="#F1F1F1"/>
<path d="M49.0508 51.8231C51.0023 51.8231 52.5843 50.2585 52.5843 48.3284C52.5843 46.3983 51.0023 44.8336 49.0508 44.8336C47.0992 44.8336 45.5172 46.3983 45.5172 48.3284C45.5172 50.2585 47.0992 51.8231 49.0508 51.8231Z" fill="#F1F1F1"/>
<path d="M97.9162 7.61638C100.043 7.61638 101.767 5.91139 101.767 3.80819C101.767 1.70498 100.043 -2.86102e-06 97.9162 -2.86102e-06C95.7896 -2.86102e-06 94.0657 1.70498 94.0657 3.80819C94.0657 5.91139 95.7896 7.61638 97.9162 7.61638Z" fill="#F1F1F1"/>
<path opacity="0.17" d="M74.9694 84.0426L75.3135 81.415C75.3135 81.415 88.1527 82.3419 86.1465 85.4599C84.1404 88.5778 79.2683 88.8612 79.2683 88.8612L74.9694 84.0426Z" fill="#2F2E41"/>
<path d="M84.6609 72.6176C85.3963 72.6977 86.1048 72.9378 86.7353 73.3207C87.3658 73.7036 87.9028 74.2198 88.3077 74.8322C88.6767 75.3911 88.9277 76.018 89.0455 76.6752C89.1634 77.3324 89.1457 78.0064 88.9936 78.6567C88.8415 79.3069 88.5581 79.9201 88.1603 80.4593C87.7626 80.9986 87.2587 81.4527 86.6791 81.7945C86.4665 81.9187 86.2447 82.0265 86.0154 82.1171L78.1237 105.991C77.895 106.462 77.5745 106.884 77.1804 107.232C76.7864 107.58 76.3267 107.848 75.8277 108.02C75.3288 108.192 74.8004 108.264 74.2729 108.233C73.7455 108.203 73.2294 108.069 72.7544 107.84C72.2793 107.612 71.8547 107.292 71.5048 106.901C71.155 106.509 70.8868 106.053 70.7158 105.559C70.5448 105.064 70.4743 104.541 70.5083 104.02C70.5424 103.498 70.6803 102.989 70.9142 102.52L79.3068 78.9109C79.0782 78.1298 79.0478 77.3049 79.2183 76.5094C79.3888 75.7139 79.7549 74.9722 80.2843 74.3499C80.8137 73.7277 81.49 73.2441 82.2533 72.9419C83.0167 72.6398 83.8436 72.5284 84.6609 72.6176Z" fill="#FFB7B7"/>
<path d="M75.0872 81.6389C75.0872 81.6389 79.6091 89.2799 86.1466 85.4599L79.8109 109.439H74.4729L68.9509 108.419L70.4971 98.5118L75.0872 81.6389Z" fill="#E5E5E5"/>
<path d="M107.375 86.8615L103.629 81.7751C103.629 81.7751 105.429 76.4993 112.41 78.4285C112.41 78.4285 116.853 88.2631 107.375 86.8615Z" fill="#E5E5E5"/>
<path opacity="0.17" d="M107.375 86.8615L103.629 81.7751C103.629 81.7751 105.429 76.4993 112.41 78.4285C112.41 78.4285 116.853 88.2631 107.375 86.8615Z" fill="#2F2E41"/>
<path d="M108.367 69.0904C109.447 69.5873 110.312 70.4513 110.803 71.5254C111.294 72.5994 111.379 73.812 111.042 74.9427L119.434 98.5517C119.668 99.0203 119.806 99.53 119.84 100.051C119.874 100.573 119.804 101.096 119.633 101.59C119.462 102.085 119.194 102.541 118.844 102.933C118.494 103.324 118.069 103.644 117.594 103.872C117.119 104.101 116.603 104.235 116.076 104.265C115.548 104.296 115.02 104.224 114.521 104.052C114.022 103.88 113.562 103.612 113.168 103.264C112.774 102.916 112.454 102.494 112.225 102.023L104.333 78.1489C104.104 78.0583 103.882 77.9504 103.67 77.8263C103.09 77.4845 102.586 77.0303 102.188 76.4911C101.791 75.9519 101.507 75.3387 101.355 74.6884C101.203 74.0381 101.185 73.3641 101.303 72.7069C101.421 72.0497 101.672 71.4229 102.041 70.864C102.446 70.2515 102.983 69.7353 103.613 69.3524C104.244 68.9695 104.952 68.7294 105.688 68.6494C106.605 68.5466 107.533 68.6993 108.367 69.0904Z" fill="#FFB7B7"/>
<path d="M103.629 81.7751C103.629 81.7751 109.809 85.4841 112.41 78.4285L121.12 101.108L118.532 105.585L118.157 105.615C116.614 105.743 115.062 105.498 113.635 104.901C112.208 104.304 110.949 103.374 109.965 102.19C107.96 99.7745 106.595 96.9031 105.993 93.8351L103.629 81.7751Z" fill="#E5E5E5"/>
</g>
<defs>
<clipPath id="clip0_51_4368">
<rect width="186" height="170" fill="white"/>
</clipPath>
</defs>
</svg>
