<svg width="863" height="646" viewBox="0 0 863 646" fill="none" xmlns="http://www.w3.org/2000/svg">
<path d="M629.943 613.644H612.777L604.608 547.435H629.943V613.644Z" fill="#9E616A"/>
<path d="M639.003 643.385H626.693L624.495 631.763L618.868 643.385H586.219C584.654 643.385 583.13 642.885 581.869 641.958C580.609 641.03 579.678 639.724 579.212 638.23C578.746 636.736 578.77 635.132 579.281 633.653C579.791 632.173 580.761 630.896 582.049 630.006L608.121 612V600.25L635.545 601.887L639.003 643.385Z" fill="#2F2E41"/>
<path d="M731.923 591.981L718.148 602.224L672.085 553.969L692.415 538.851L731.923 591.981Z" fill="#9E616A"/>
<path d="M756.94 610.441L747.062 617.786L738.363 609.771L740.783 622.456L714.583 641.938C713.328 642.872 711.806 643.38 710.241 643.388C708.676 643.396 707.15 642.903 705.884 641.982C704.619 641.061 703.681 639.76 703.208 638.268C702.735 636.776 702.751 635.172 703.254 633.69L713.431 603.683L706.42 594.255L729.403 579.204L756.94 610.441Z" fill="#2F2E41"/>
<path d="M649.927 272.04C649.927 272.04 682.496 300.178 667.469 380.392L649.124 458.989L708.953 558.245L689.877 581.452L612.097 474.019L583.912 407.905L576.003 290.236L649.927 272.04Z" fill="#2F2E41"/>
<path d="M599.447 426.746L597.488 457.084L603.483 586.365L631.692 581.452L637.083 489.406L599.447 426.746Z" fill="#2F2E41"/>
<path d="M237.445 629.211L252.796 629.21L260.098 570.001L237.443 570.002L237.445 629.211Z" fill="#FFB6B6"/>
<path d="M233.53 624.199L237.85 624.199L254.719 617.339L263.76 624.198H263.762C268.871 624.198 273.771 626.228 277.384 629.841C280.997 633.454 283.027 638.354 283.027 643.463V644.089L233.531 644.091L233.53 624.199Z" fill="#2F2E41"/>
<path d="M296.932 619.538L311.905 622.918L332.071 566.772L309.972 561.782L296.932 619.538Z" fill="#FFB6B6"/>
<path d="M294.216 613.786L298.431 614.738L316.397 611.762L323.705 620.444L323.706 620.445C328.69 621.57 333.022 624.63 335.751 628.95C338.479 633.269 339.38 638.496 338.255 643.48L338.117 644.091L289.835 633.19L294.216 613.786Z" fill="#2F2E41"/>
<path d="M218.003 267.236C210.806 288.942 211.567 312.504 219.733 337.792L223.224 480.17C223.224 480.17 218.023 573.539 234.806 606.395H259.146L271.197 471.643L272.71 381.198L324.893 457.503L291.656 604.192L321.613 606.87L375.547 447.679L309.003 293.236L218.003 267.236Z" fill="#2F2E41"/>
<path d="M498.698 205.408C517.315 188.631 545.007 180.196 568.235 189.603C544.408 202.832 526.028 224.062 516.347 249.538C512.649 259.376 509.56 270.704 500.465 275.971C494.806 279.249 487.765 279.409 481.419 277.827C475.074 276.244 469.257 273.073 463.52 269.933L461.888 269.896C469.216 245.93 480.08 222.184 498.698 205.408Z" fill="#E6E6E6"/>
<path d="M568.105 190.112C547.533 192.771 528.321 201.844 513.199 216.043C509.889 219.042 507.073 222.544 504.853 226.42C502.813 230.265 501.841 234.587 502.036 238.935C502.136 242.994 502.709 247.133 501.821 251.145C501.337 253.192 500.424 255.114 499.145 256.783C497.865 258.453 496.247 259.833 494.397 260.834C489.851 263.447 484.637 264.271 479.511 264.899C473.819 265.597 467.896 266.231 462.968 269.424C462.371 269.811 461.806 268.862 462.402 268.475C470.975 262.921 481.822 264.942 491.039 261.235C495.341 259.505 499.146 256.469 500.493 251.878C501.671 247.863 501.084 243.594 500.947 239.486C500.694 235.246 501.484 231.009 503.246 227.145C505.261 223.169 507.938 219.564 511.162 216.486C518.31 209.44 526.521 203.562 535.495 199.066C545.708 193.879 556.734 190.477 568.095 189.008C568.798 188.917 568.803 190.022 568.105 190.112H568.105Z" fill="white"/>
<path d="M517.799 211.184C515.761 208.324 514.806 204.832 515.105 201.332C515.404 197.833 516.938 194.554 519.431 192.08C519.938 191.582 520.736 192.345 520.229 192.844C517.903 195.143 516.475 198.198 516.203 201.457C515.932 204.717 516.834 207.966 518.747 210.618C519.162 211.195 518.212 211.758 517.799 211.184V211.184Z" fill="white"/>
<path d="M501.714 236.884C508.783 238.137 516.065 236.679 522.108 232.801C522.706 232.416 523.271 233.365 522.674 233.749C516.379 237.773 508.797 239.275 501.444 237.955C500.743 237.829 501.017 236.759 501.714 236.884V236.884Z" fill="white"/>
<path d="M545.798 195.341C546.356 196.612 547.221 197.725 548.315 198.579C549.409 199.433 550.698 200.002 552.067 200.235C552.769 200.352 552.494 201.423 551.797 201.306C550.286 201.042 548.863 200.411 547.652 199.47C546.441 198.529 545.479 197.306 544.85 195.907C544.78 195.78 544.76 195.631 544.796 195.491C544.831 195.35 544.919 195.228 545.041 195.15C545.167 195.075 545.317 195.054 545.459 195.089C545.601 195.125 545.723 195.216 545.798 195.341V195.341Z" fill="white"/>
<path d="M593.813 270.508C593.372 270.447 592.932 270.386 592.485 270.332C586.559 269.545 580.578 269.242 574.603 269.424C574.141 269.43 573.672 269.444 573.211 269.464C558.82 270.056 544.663 273.314 531.461 279.074C526.21 281.371 521.141 284.064 516.298 287.13C509.61 291.364 502.696 296.487 495.22 298.214C494.442 298.403 493.653 298.544 492.858 298.635L461.969 271.89C461.93 271.794 461.884 271.704 461.844 271.608L460.561 270.597C460.8 270.421 461.052 270.244 461.29 270.068C461.428 269.966 461.573 269.87 461.711 269.767C461.805 269.701 461.9 269.635 461.981 269.569C462.013 269.547 462.044 269.525 462.069 269.51C462.151 269.445 462.233 269.393 462.308 269.334C463.71 268.341 465.122 267.357 466.543 266.38C466.549 266.373 466.549 266.373 466.562 266.372C477.32 258.826 488.935 252.582 501.163 247.772C501.53 247.634 501.903 247.488 502.284 247.361C507.791 245.314 513.456 243.72 519.223 242.595C522.383 241.989 525.571 241.544 528.776 241.261C537.058 240.545 545.401 241.136 553.499 243.012C569.642 246.755 584.409 255.62 593.155 269.445C593.379 269.799 593.595 270.147 593.813 270.508Z" fill="#E6E6E6"/>
<path d="M593.404 270.839C575.377 260.576 554.575 256.254 533.952 258.486C529.504 258.888 525.147 259.988 521.042 261.747C517.098 263.589 513.719 266.454 511.257 270.044C508.894 273.344 506.859 276.995 503.734 279.664C502.115 281.006 500.23 281.991 498.203 282.554C496.176 283.117 494.053 283.245 491.973 282.929C486.77 282.279 482.111 279.797 477.64 277.213C472.675 274.343 467.564 271.283 461.707 270.866C460.998 270.815 461.118 269.717 461.826 269.768C472.015 270.494 479.459 278.638 489.051 281.228C493.527 282.436 498.393 282.303 502.233 279.449C505.591 276.953 507.692 273.19 510.056 269.827C512.407 266.29 515.588 263.383 519.321 261.359C523.324 259.397 527.632 258.13 532.059 257.614C542.009 256.291 552.104 256.541 561.976 258.355C573.254 260.363 584.105 264.285 594.061 269.951C594.677 270.302 594.016 271.188 593.404 270.839L593.404 270.839Z" fill="white"/>
<path d="M540.551 257.376C540.646 253.865 541.986 250.503 544.332 247.889C546.677 245.275 549.876 243.579 553.356 243.106C554.06 243.012 554.239 244.103 553.533 244.196C550.292 244.631 547.312 246.211 545.133 248.649C542.954 251.088 541.718 254.225 541.649 257.495C541.633 258.206 540.535 258.083 540.551 257.376Z" fill="white"/>
<path d="M512.234 268.212C517.125 273.469 523.817 276.689 530.976 277.23C531.686 277.283 531.566 278.381 530.857 278.328C523.408 277.751 516.451 274.386 511.374 268.905C510.89 268.382 511.754 267.692 512.234 268.212Z" fill="white"/>
<path d="M572.445 261.584C572.126 262.935 572.146 264.344 572.505 265.685C572.865 267.025 573.551 268.256 574.504 269.266C574.994 269.782 574.13 270.471 573.643 269.958C572.596 268.838 571.839 267.478 571.439 265.997C571.039 264.517 571.007 262.96 571.347 261.465C571.368 261.321 571.442 261.191 571.555 261.1C571.668 261.009 571.811 260.964 571.956 260.975C572.101 260.992 572.234 261.065 572.326 261.179C572.417 261.293 572.46 261.438 572.445 261.584V261.584Z" fill="white"/>
<path d="M51.2732 628.136C49.8232 633.576 46.0132 638.106 41.4132 641.406C40.6632 641.946 39.8932 642.446 39.1132 642.916C38.8732 643.056 38.6332 643.206 38.3832 643.336C38.1132 643.496 37.8432 643.646 37.5732 643.786H15.9432C15.5532 642.996 15.1732 642.196 14.7932 641.406C5.52321 621.926 -0.986784 600.906 0.123216 579.496C0.563593 571.191 2.30827 563.008 5.29321 555.246C11.2332 539.776 22.0732 526.386 36.9832 519.646C37.3532 519.476 37.7432 519.306 38.1232 519.146C38.0032 519.576 37.8832 519.996 37.7632 520.426C36.1636 526.188 35.0333 532.071 34.3832 538.016C34.3232 538.476 34.2732 538.936 34.2332 539.406C32.8126 553.743 34.0741 568.22 37.9532 582.096C37.9632 582.126 37.9732 582.166 37.9832 582.196C38.8333 585.266 39.8199 588.289 40.9432 591.266C41.8232 593.616 42.7732 595.936 43.8132 598.216C48.1532 607.786 53.9732 617.986 51.2732 628.136Z" fill="#E6E6E6"/>
<path d="M38.3932 519.596C38.1832 519.876 37.9732 520.146 37.7632 520.426C33.371 526.247 29.6413 532.539 26.6432 539.186C26.4832 539.516 26.3332 539.846 26.2032 540.186C22.0952 549.468 19.4569 559.333 18.3832 569.426C18.3716 569.495 18.3649 569.566 18.3632 569.636C18.1132 571.996 17.9632 574.376 17.9032 576.756C17.6809 581.217 18.1634 585.685 19.3332 589.996C20.3998 593.516 22.2689 596.741 24.7932 599.416C25.0432 599.686 25.2932 599.956 25.5632 600.216C25.7632 600.426 25.9832 600.636 26.1932 600.836C28.2132 602.766 30.4232 604.556 32.3232 606.626C33.1941 607.554 33.9805 608.558 34.6732 609.626C35.7787 611.416 36.4929 613.419 36.7686 615.505C37.0444 617.59 36.8756 619.71 36.2732 621.726C34.9132 626.786 31.8032 631.056 28.6232 635.126C27.0332 637.166 25.3932 639.226 23.9732 641.406C23.4533 642.186 22.9732 642.976 22.5333 643.786H21.2733C21.6933 642.976 22.1533 642.186 22.6533 641.406C26.3033 635.656 31.4933 630.716 34.1833 624.386C36.0033 620.116 36.5533 615.276 34.2533 611.086C33.5792 609.868 32.7635 608.733 31.8233 607.706C29.9933 605.636 27.8033 603.866 25.8133 601.996C25.3133 601.526 24.8233 601.046 24.3533 600.546C21.8615 598.014 19.9387 594.98 18.7133 591.646C17.3256 587.411 16.6695 582.971 16.7733 578.516C16.7733 575.676 16.9233 572.816 17.2033 569.976C17.2333 569.616 17.2733 569.246 17.3133 568.876C19.3583 551.004 26.15 534.006 36.9833 519.646C37.1833 519.366 37.3933 519.096 37.6033 518.826C38.0332 518.266 38.8232 519.046 38.3932 519.596Z" fill="white"/>
<path d="M17.7169 570.071C14.2532 569.489 11.1091 567.695 8.84601 565.009C6.58296 562.323 5.34836 558.92 5.36267 555.408C5.36459 555.265 5.42201 555.128 5.52286 555.026C5.6237 554.924 5.7601 554.866 5.90329 554.863C6.04648 554.859 6.1853 554.912 6.2905 555.009C6.39569 555.106 6.45905 555.241 6.46723 555.384C6.44786 558.654 7.59821 561.824 9.71066 564.321C11.8231 566.818 14.7585 568.477 17.9871 569C18.6885 569.114 18.4143 570.184 17.7169 570.071V570.071Z" fill="white"/>
<path d="M24.5156 599.617C30.4002 595.504 34.5183 589.324 36.0488 582.309C36.1998 581.614 37.2706 581.885 37.1198 582.579C35.5135 589.876 31.215 596.299 25.0819 600.565C24.497 600.972 23.934 600.021 24.5156 599.617L24.5156 599.617Z" fill="white"/>
<path d="M26.3124 539.069C27.6056 539.573 29.0039 539.749 30.3817 539.579C31.7594 539.409 33.0735 538.9 34.2058 538.097C34.7852 537.684 35.3477 538.635 34.772 539.046C33.5169 539.927 32.0649 540.487 30.5431 540.678C29.0214 540.869 27.476 540.684 26.0422 540.14C25.9027 540.1 25.7837 540.008 25.7093 539.884C25.6349 539.759 25.6108 539.611 25.6418 539.469C25.6783 539.328 25.7692 539.206 25.8947 539.131C26.0203 539.056 26.1704 539.034 26.3124 539.069V539.069Z" fill="white"/>
<path d="M113.413 558.266C113.063 558.536 112.703 558.806 112.353 559.086C107.605 562.719 103.161 566.733 99.0632 571.086C98.7432 571.416 98.4232 571.756 98.1132 572.096L98.1032 572.106C88.3872 582.653 80.7047 594.906 75.4432 608.246L75.4132 608.336C75.4032 608.366 75.3932 608.386 75.3832 608.416C73.2976 613.756 71.6162 619.244 70.3532 624.836C69.1332 630.296 68.1332 636.146 66.2232 641.406C65.9332 642.216 65.6132 643.016 65.2732 643.786H20.8132C20.9632 642.996 21.1232 642.196 21.2832 641.406C23.5448 629.819 27.0796 618.517 31.8232 607.706C31.9832 607.346 32.1432 606.986 32.3232 606.626C34.772 601.284 37.6515 596.151 40.9332 591.276C40.9331 591.275 40.9334 591.273 40.9339 591.272C40.9344 591.271 40.9351 591.27 40.936 591.269C40.937 591.268 40.9381 591.267 40.9393 591.267C40.9405 591.266 40.9419 591.266 40.9432 591.266C42.7452 588.606 44.681 586.039 46.7432 583.576C52.0914 577.213 58.4088 571.732 65.4632 567.336C65.5032 567.306 65.5532 567.286 65.5932 567.256C79.6332 558.546 96.2732 554.396 112.183 557.986H112.193C112.603 558.076 113.003 558.166 113.413 558.266Z" fill="#E6E6E6"/>
<path d="M113.363 558.796C113.023 558.886 112.683 558.986 112.353 559.086C105.345 561.089 98.5802 563.862 92.1832 567.356C91.8632 567.526 91.5432 567.706 91.2232 567.886C82.3828 572.82 74.3581 579.091 67.4332 586.476C67.4278 586.481 67.4243 586.488 67.4232 586.496C67.3432 586.576 67.2532 586.666 67.1832 586.746C65.5832 588.466 64.0432 590.256 62.5832 592.096C59.7273 595.527 57.4261 599.383 55.7632 603.526C54.4925 606.979 54.044 610.68 54.4532 614.336C54.4832 614.706 54.5332 615.066 54.5832 615.436C54.6232 615.726 54.6632 616.016 54.7132 616.316C55.3732 620.326 56.5132 624.346 56.1932 628.436C55.9985 630.532 55.3623 632.562 54.3265 634.394C53.2906 636.227 51.8786 637.819 50.1832 639.066C49.0308 639.957 47.7989 640.74 46.5032 641.406C44.6507 642.361 42.7204 643.157 40.7332 643.786H36.8032C37.3332 643.636 37.8532 643.486 38.3832 643.336C40.264 642.805 42.1107 642.161 43.9132 641.406C44.9429 640.975 45.9449 640.481 46.9132 639.926C50.9332 637.616 54.2833 634.076 54.9832 629.346C55.5932 625.206 54.4132 621.066 53.7132 617.016C53.5932 616.316 53.4832 615.626 53.4232 614.936C52.9458 611.429 53.2358 607.86 54.2732 604.476C55.7121 600.255 57.8632 596.311 60.6332 592.816C62.3468 590.54 64.1758 588.354 66.1132 586.266C66.3532 585.996 66.6032 585.726 66.8632 585.456C73.9338 578.018 82.0977 571.702 91.0732 566.726H91.0832C97.757 563.011 104.837 560.078 112.183 557.986H112.193C112.523 557.886 112.863 557.786 113.193 557.696C113.883 557.516 114.043 558.606 113.363 558.796Z" fill="white"/>
<path d="M66.4676 586.645C64.0523 584.095 62.622 580.77 62.4322 577.263C62.2424 573.756 63.3055 570.296 65.4315 567.5C65.8636 566.936 66.7606 567.581 66.3279 568.146C64.3434 570.745 63.3535 573.969 63.5369 577.234C63.7203 580.5 65.065 583.592 67.3281 585.953C67.8193 586.467 66.956 587.156 66.4676 586.645H66.4676Z" fill="white"/>
<path d="M54.1071 614.33C61.2821 614.589 68.291 612.133 73.7363 607.454C74.2754 606.99 74.9672 607.851 74.4287 608.315C68.7531 613.174 61.4541 615.714 53.9882 615.428C53.2766 615.4 53.3993 614.302 54.1071 614.33V614.33Z" fill="white"/>
<path d="M91.9957 567.067C92.7246 568.249 93.7356 569.231 94.9378 569.925C96.1399 570.619 97.4957 571.003 98.8832 571.044C99.5948 571.063 99.4713 572.161 98.7643 572.142C97.2315 572.09 95.7348 571.663 94.4049 570.9C93.075 570.136 91.9524 569.058 91.1352 567.76C91.0479 567.644 91.008 567.499 91.0236 567.355C91.0392 567.211 91.1091 567.078 91.2192 566.983C91.3336 566.892 91.4793 566.85 91.6247 566.866C91.7701 566.881 91.9034 566.954 91.9957 567.067V567.067Z" fill="white"/>
<path d="M456.382 174.13C455.356 175.48 454.046 176.588 452.545 177.377C451.044 178.166 449.388 178.616 447.695 178.696C446.001 178.776 444.31 178.484 442.741 177.839C441.173 177.195 439.764 176.215 438.616 174.967L400.815 191.407L404.497 170.306L439.829 157.929C442.052 156.138 444.855 155.225 447.707 155.363C450.559 155.501 453.261 156.68 455.301 158.677C457.342 160.674 458.579 163.35 458.778 166.198C458.977 169.046 458.125 171.868 456.382 174.13V174.13Z" fill="#FFB8B8"/>
<path d="M431.157 180.718L343.36 219.827L343.171 219.759L243.104 184.1C235.651 180.205 229.968 173.607 227.22 165.659C224.472 157.71 224.867 149.012 228.323 141.345V141.345C230.238 137.108 233.03 133.326 236.513 130.246C239.996 127.166 244.091 124.859 248.53 123.477C252.969 122.094 257.65 121.667 262.266 122.224C266.882 122.781 271.327 124.309 275.31 126.708L349.778 171.567L421.99 162.208L431.157 180.718Z" fill="#E6E6E6"/>
<path d="M862.703 644.596C862.704 644.752 862.673 644.907 862.614 645.052C862.554 645.196 862.466 645.328 862.356 645.438C862.245 645.549 862.114 645.637 861.969 645.696C861.825 645.756 861.67 645.786 861.513 645.786H1.22325C0.907644 645.786 0.604974 645.661 0.381805 645.437C0.158637 645.214 0.0332642 644.912 0.0332642 644.596C0.0332642 644.28 0.158637 643.978 0.381805 643.755C0.604974 643.531 0.907644 643.406 1.22325 643.406H861.513C861.67 643.405 861.825 643.436 861.969 643.496C862.114 643.555 862.245 643.643 862.356 643.753C862.466 643.864 862.554 643.995 862.614 644.14C862.673 644.285 862.704 644.44 862.703 644.596Z" fill="#CCCCCC"/>
<path d="M313.344 297.796L224.838 283.64C222.517 282.896 220.384 281.659 218.586 280.014C216.787 278.368 215.367 276.353 214.421 274.107C213.475 271.86 213.027 269.436 213.106 267C213.186 264.564 213.792 262.174 214.882 259.994L218.896 251.965L217.337 167.619C217.149 156.647 219.854 145.82 225.179 136.226C230.505 126.631 238.263 118.609 247.673 112.965L256.304 107.804L260.666 96.7277L300.886 97.7087L301.003 112.236L315.407 135.204L315.407 135.299L314.503 260.313L310.533 273.215L316.535 288.22L313.344 297.796Z" fill="#E6E6E6"/>
<path d="M284.459 82.9541C304.642 82.9541 321.003 66.5927 321.003 46.41C321.003 26.2272 304.642 9.86584 284.459 9.86584C264.276 9.86584 247.915 26.2272 247.915 46.41C247.915 66.5927 264.276 82.9541 284.459 82.9541Z" fill="#FFB8B8"/>
<path d="M246.405 54.3765C245.315 49.7846 245.816 43.323 246.432 38.6995C248.047 26.5782 254.778 15.0547 265.005 8.229C266.944 6.75617 269.249 5.84045 271.67 5.58054C274.089 5.47954 276.712 6.77472 277.454 9.07954C278.064 7.55834 278.979 6.17821 280.142 5.02431C281.306 3.87042 282.694 2.96724 284.22 2.37054C287.286 1.19589 290.583 0.75167 293.851 1.07308C300.184 1.59512 306.258 3.82204 311.427 7.51751C316.597 11.213 320.67 16.2391 323.214 22.0626C324.19 24.3814 326.916 15.8163 328.153 18.0073C329.289 20.2846 331.272 22.0267 333.677 22.8607C336.1 23.5369 337.084 33.521 338.038 31.1929C338.778 32.9135 339.07 34.7933 338.888 36.6573C338.706 38.5213 338.055 40.3089 336.996 41.8536C335.937 43.3982 334.504 44.6498 332.831 45.4916C331.158 46.3334 329.299 46.7382 327.427 46.6682C324.961 46.5759 322.603 45.6687 320.165 45.2782C311.45 43.8817 302.205 50.2013 300.342 58.8287C299.675 56.3338 298.61 53.9629 297.187 51.8077C296.464 50.7358 295.496 49.8519 294.364 49.2294C293.231 48.607 291.966 48.264 290.673 48.2291C288.194 48.3219 286.014 49.943 284.406 51.832C282.797 53.7211 281.588 55.925 279.968 57.8039C275.212 63.3169 268.78 76.1736 262.003 75.2359C256.655 74.496 247.894 60.646 246.405 54.3765Z" fill="#2F2E41"/>
<path d="M505.364 215.54C505.62 213.874 505.277 212.172 504.397 210.734C503.518 209.296 502.157 208.217 500.557 207.687L402.144 174.91C401.2 174.594 400.201 174.479 399.211 174.573L374.544 176.906L360.39 178.248L334.271 180.717C332.694 180.867 331.212 181.537 330.057 182.621C328.902 183.705 328.139 185.142 327.888 186.706L314.627 269.544C314.376 271.16 314.683 272.813 315.498 274.23C316.314 275.647 317.588 276.744 319.111 277.34L418.551 315.724C419.018 315.905 419.503 316.036 419.998 316.113C420.718 316.229 421.452 316.235 422.173 316.129L486.429 306.606C487.944 306.386 489.349 305.684 490.434 304.603C491.519 303.523 492.226 302.121 492.452 300.606L505.364 215.54Z" fill="white"/>
<path d="M321.365 271.503L420.805 309.886C420.95 309.943 421.108 309.961 421.262 309.939L485.509 300.417C485.7 300.391 485.876 300.303 486.013 300.168C486.149 300.032 486.237 299.856 486.264 299.665L499.184 214.599C499.213 214.391 499.17 214.179 499.06 214C498.951 213.821 498.783 213.686 498.585 213.617L497.923 213.393L400.165 180.847C400.121 180.831 400.075 180.82 400.028 180.814C399.952 180.8 399.875 180.796 399.798 180.802L339.634 186.495L334.859 186.943C334.663 186.964 334.48 187.049 334.336 187.184C334.193 187.319 334.097 187.497 334.065 187.691L320.806 270.525C320.773 270.728 320.811 270.935 320.913 271.113C321.015 271.291 321.174 271.429 321.365 271.503V271.503Z" fill="#CD212A"/>
<path d="M339.634 186.495L399.798 180.802C399.875 180.796 399.952 180.8 400.028 180.814C400.075 180.82 400.121 180.831 400.165 180.847L497.923 213.393L472.136 216.123L462.486 217.139L435.025 220.041C434.945 220.045 434.865 220.044 434.785 220.038C434.736 220.023 434.687 220.008 434.628 219.993L339.634 186.495Z" fill="#2F2E41"/>
<path d="M319.109 277.345L418.549 315.727C419.017 315.908 419.504 316.035 420 316.107C420.72 316.226 421.454 316.235 422.177 316.134L486.424 306.612C487.94 306.391 489.345 305.688 490.431 304.607C491.517 303.526 492.225 302.124 492.452 300.608L505.362 215.54C505.553 214.286 505.409 213.004 504.944 211.824C504.879 211.667 504.813 211.51 504.737 211.362C504.225 210.284 503.446 209.356 502.473 208.664C501.888 208.244 501.242 207.915 500.557 207.688L500.441 207.647L402.149 174.909C401.748 174.781 401.337 174.681 400.922 174.611C400.354 174.531 399.778 174.519 399.207 174.578L374.544 176.902L360.392 178.252L334.269 180.719C333.2 180.819 332.168 181.16 331.25 181.716C331.179 181.751 331.111 181.791 331.048 181.838C331.002 181.867 330.959 181.9 330.918 181.936C330.116 182.483 329.435 183.187 328.914 184.006C328.394 184.825 328.046 185.741 327.891 186.699L314.621 269.543C314.37 271.16 314.678 272.814 315.494 274.233C316.31 275.651 317.585 276.749 319.109 277.345V277.345ZM329.651 186.988C329.813 185.995 330.253 185.069 330.921 184.317C331.124 184.075 331.35 183.854 331.597 183.658C332.272 183.113 333.069 182.741 333.921 182.574C334.089 182.539 334.259 182.515 334.43 182.502L378.414 178.347L399.379 176.352C399.521 176.336 399.652 176.338 399.783 176.33C400.1 176.324 400.418 176.347 400.731 176.401C401.019 176.438 401.302 176.506 401.575 176.602L499.984 209.381C500.062 209.408 500.129 209.435 500.207 209.462C501.102 209.795 501.888 210.367 502.48 211.116C502.948 211.689 503.29 212.355 503.483 213.069C503.676 213.784 503.716 214.531 503.601 215.262L490.68 300.338C490.511 301.473 489.981 302.523 489.169 303.334C488.357 304.144 487.306 304.672 486.172 304.84L421.914 314.361C420.995 314.493 420.058 314.386 419.192 314.051L319.751 275.679C318.611 275.229 317.658 274.406 317.047 273.344C316.437 272.282 316.206 271.043 316.391 269.832L329.651 186.988Z" fill="#3F3D56"/>
<path d="M330.704 182.387C330.756 182.237 330.849 182.103 330.972 182.001C331.013 181.969 331.056 181.939 331.101 181.913C331.142 181.897 331.185 181.871 331.227 181.855C331.426 181.774 331.649 181.771 331.851 181.844L333.921 182.574L435.036 218.244L458.702 215.743L471.944 214.346L499.974 211.379L502.48 211.116L502.967 211.062C503.177 211.043 503.388 211.098 503.561 211.217C503.735 211.337 503.862 211.513 503.92 211.716C503.933 211.763 503.942 211.811 503.946 211.859C503.967 212.052 503.924 212.246 503.825 212.412C503.726 212.578 503.575 212.708 503.396 212.781C503.317 212.814 503.233 212.836 503.148 212.848L499.739 213.205L472.136 216.123L462.486 217.139L435.025 220.041C434.945 220.045 434.865 220.044 434.785 220.038C434.736 220.023 434.687 220.008 434.628 219.993L331.597 183.658L331.247 183.534C331.167 183.508 331.093 183.467 331.028 183.413C330.872 183.298 330.756 183.137 330.698 182.953C330.64 182.769 330.642 182.571 330.704 182.387Z" fill="#3F3D56"/>
<path d="M420.271 316.368C420.038 316.33 419.829 316.203 419.69 316.012C419.551 315.822 419.493 315.585 419.528 315.352L434.045 219.018C434.08 218.783 434.207 218.573 434.398 218.432C434.589 218.291 434.828 218.232 435.062 218.267L435.07 218.268C435.303 218.306 435.511 218.433 435.65 218.623C435.789 218.814 435.848 219.051 435.813 219.284L421.296 315.618C421.26 315.853 421.133 316.063 420.943 316.204C420.752 316.345 420.513 316.404 420.279 316.369L420.271 316.368Z" fill="#3F3D56"/>
<path d="M457.068 310.256L447.413 311.275L458.706 215.741C458.706 215.741 471.601 213.406 471.946 214.342C472.158 214.901 457.16 309.644 457.068 310.256Z" fill="#3F3D56"/>
<path d="M331.25 183.533L330.99 227.1L408.116 256.488L435.813 219.284L331.25 183.533Z" fill="#3F3D56"/>
<path d="M502.483 211.118C501.838 210.307 500.97 209.704 499.986 209.381L401.58 176.603C401.304 176.51 401.02 176.441 400.732 176.397C400.418 176.343 400.1 176.319 399.782 176.326L399.941 175.328L400.926 174.615L424.295 157.696L502.335 181.613L502.471 208.665L502.483 211.118Z" fill="#3F3D56"/>
<path d="M335.181 253.473C335.291 253.483 335.401 253.506 335.507 253.541L365.7 263.458C366.078 263.582 366.392 263.851 366.571 264.206C366.751 264.561 366.782 264.973 366.658 265.351C366.534 265.729 366.265 266.042 365.91 266.222C365.555 266.401 365.143 266.433 364.765 266.309L334.571 256.392C334.221 256.277 333.925 256.036 333.74 255.717C333.556 255.397 333.495 255.021 333.571 254.66C333.646 254.298 333.852 253.978 334.149 253.759C334.446 253.54 334.813 253.438 335.181 253.473H335.181Z" fill="white"/>
<path d="M457.003 436.236C463.631 436.236 469.003 430.863 469.003 424.236C469.003 417.609 463.631 412.236 457.003 412.236C450.376 412.236 445.003 417.609 445.003 424.236C445.003 430.863 450.376 436.236 457.003 436.236Z" fill="#F2F2F2"/>
<path d="M151.003 480.236C157.631 480.236 163.003 474.863 163.003 468.236C163.003 461.609 157.631 456.236 151.003 456.236C144.376 456.236 139.003 461.609 139.003 468.236C139.003 474.863 144.376 480.236 151.003 480.236Z" fill="#F2F2F2"/>
<path d="M401.003 83.2359C407.631 83.2359 413.003 77.8633 413.003 71.2359C413.003 64.6085 407.631 59.2359 401.003 59.2359C394.376 59.2359 389.003 64.6085 389.003 71.2359C389.003 77.8633 394.376 83.2359 401.003 83.2359Z" fill="#F2F2F2"/>
<path d="M420.692 271.121C419.137 271.797 417.452 272.124 415.757 272.078C414.062 272.032 412.397 271.615 410.881 270.857C409.364 270.098 408.032 269.016 406.979 267.687C405.926 266.358 405.177 264.814 404.785 263.164L363.773 259.021L377.303 242.415L414.174 248.895C416.989 248.42 419.881 248.995 422.301 250.509C424.721 252.024 426.502 254.374 427.305 257.113C428.109 259.853 427.879 262.792 426.66 265.374C425.441 267.956 423.318 270.001 420.692 271.121V271.121Z" fill="#FFB8B8"/>
<path d="M395.467 264.534L299.758 255.715L299.627 255.565L229.776 175.528C225.179 168.485 223.448 159.952 224.938 151.674C226.428 143.397 231.025 136.003 237.789 131.005V131.005C241.532 128.246 245.816 126.312 250.36 125.328C254.904 124.345 259.605 124.335 264.153 125.3C268.701 126.264 272.994 128.181 276.748 130.924C280.502 133.667 283.632 137.174 285.933 141.214L328.955 216.758L396.521 243.905L395.467 264.534Z" fill="#E6E6E6"/>
<path d="M635.69 110.617C633.313 93.1828 630.332 74.465 618.036 61.8798C614.134 57.8866 609.465 54.7247 604.308 52.585C599.151 50.4453 593.615 49.372 588.032 49.4298C582.449 49.4875 576.936 50.6752 571.825 52.9212C566.714 55.1672 562.11 58.425 558.292 62.4982C549.341 72.0469 545.389 85.4549 545.027 98.538C544.665 111.621 547.579 124.559 550.811 137.241C567.917 137.583 584.897 134.241 600.597 127.442C604.523 125.738 608.386 123.812 612.534 122.756C616.682 121.7 619.639 124.357 623.497 126.209L625.615 122.154C627.349 125.38 632.717 124.424 634.665 121.321C636.612 118.219 636.185 114.246 635.69 110.617Z" fill="#2F2E41"/>
<path d="M567.884 207.925L498.008 209.42C496.935 207.565 495.346 206.062 493.434 205.093C491.522 204.125 489.37 203.733 487.24 203.966C485.11 204.198 483.093 205.045 481.435 206.402C479.777 207.76 478.549 209.57 477.901 211.613C477.254 213.655 477.213 215.842 477.786 217.907C478.358 219.973 479.518 221.827 481.125 223.245C482.732 224.662 484.716 225.582 486.837 225.893C488.957 226.203 491.122 225.891 493.068 224.994C502.335 225.52 574.84 235.811 579.165 229.179C583.556 222.448 606.99 198.693 606.99 198.693L588.977 173.049L567.884 207.925Z" fill="#9E616A"/>
<path d="M584.911 127.865C603.043 127.865 617.741 113.167 617.741 95.0353C617.741 76.9037 603.043 62.2051 584.911 62.2051C566.779 62.2051 552.081 76.9037 552.081 95.0353C552.081 113.167 566.779 127.865 584.911 127.865Z" fill="#9E616A"/>
<path d="M637.494 158.204C633.625 150.504 631.745 140.992 623.497 138.495C617.927 136.81 595.4 139.336 590.324 142.181C581.88 146.914 589.532 155.784 584.55 164.083C579.135 173.106 564.418 191.213 559.003 200.236C555.28 206.439 567.82 224.645 565.807 231.594C563.795 238.542 563.698 246.341 567.127 252.711C570.196 258.413 565.755 263.456 568.842 269.148C572.052 275.068 575.991 297.201 573.003 303.236L571.003 309.236C590.85 310.402 607.538 286.692 627.261 284.194C632.16 283.574 637.247 282.763 641.284 279.92C647.23 275.731 649.581 268.131 651.05 261.007C658.121 226.186 653.349 190.001 637.494 158.204V158.204Z" fill="#3F3D56"/>
<path d="M667.25 239.505C664.485 231.96 659.48 198.969 659.48 198.969L628.156 198.05L643.471 235.822L601.68 294.325C601.68 294.325 601.758 294.454 601.899 294.683C599.701 294.33 597.449 294.649 595.436 295.598C593.423 296.547 591.743 298.081 590.617 300C589.49 301.919 588.969 304.133 589.122 306.353C589.274 308.573 590.093 310.696 591.472 312.443C592.851 314.189 594.725 315.479 596.848 316.143C598.972 316.808 601.247 316.815 603.375 316.165C605.504 315.516 607.386 314.238 608.777 312.501C610.167 310.763 611.001 308.647 611.168 306.428C611.322 306.516 611.502 306.548 611.677 306.518C611.852 306.488 612.011 306.398 612.126 306.263C616.776 300.428 670.014 247.051 667.25 239.505Z" fill="#9E616A"/>
<path d="M670.434 218.67C667.559 206.536 664.663 194.335 659.815 182.845C654.968 171.355 648.029 160.502 638.269 152.739C635.148 150.257 631.66 148.067 627.748 147.295C623.836 146.524 619.428 147.387 616.681 150.277C612.285 154.9 613.608 162.322 615.22 168.495C619.974 186.695 624.729 204.895 629.483 223.096C643.212 221.641 656.942 220.185 670.671 218.73L670.434 218.67Z" fill="#3F3D56"/>
<path d="M625.139 99.5889C623.93 91.6469 622.667 83.6385 619.826 76.1603C616.986 68.6821 612.408 61.6778 605.84 57.4415C595.441 50.7344 581.978 52.028 570.319 55.8861C561.303 58.8698 552.502 63.4047 546.143 70.6954C539.785 77.9861 536.214 88.3892 538.579 97.922C551.016 94.9838 563.452 92.0455 575.888 89.1072L574.527 90.0692C578.61 92.1053 582.176 95.045 584.954 98.6651C587.731 102.285 589.648 106.491 590.557 110.962C591.447 115.488 591.319 120.154 590.184 124.625C589.048 129.095 586.933 133.257 583.992 136.81C592.474 133.801 600.955 130.792 609.437 127.783C614.672 125.926 620.275 123.786 623.38 119.023C626.979 113.5 626.143 106.18 625.139 99.5889Z" fill="#2F2E41"/>
</svg>
